<?xml version="1.0" encoding="UTF-8"?>
<svg width="63px" height="68px" viewBox="0 0 63 68" version="1.1" xmlns="http://www.w3.org/2000/svg" xmlns:xlink="http://www.w3.org/1999/xlink">
    <!-- Generator: Sketch 48 (47235) - http://www.bohemiancoding.com/sketch -->
    <title>Group 3</title>
    <desc>Created with Sketch.</desc>
    <defs>
        <linearGradient x1="90.0509246%" y1="105.872294%" x2="50%" y2="13.3288706%" id="linearGradient-1">
            <stop stop-color="#1016C2" offset="0%"></stop>
            <stop stop-color="#3662E7" offset="100%"></stop>
        </linearGradient>
        <linearGradient x1="0%" y1="-15.9521484%" x2="100%" y2="82.0263672%" id="linearGradient-2">
            <stop stop-color="#1016C2" offset="0%"></stop>
            <stop stop-color="#3662E7" offset="100%"></stop>
        </linearGradient>
        <linearGradient x1="-316.455078%" y1="-20.4861111%" x2="299.768066%" y2="170.578342%" id="linearGradient-3">
            <stop stop-color="#2D52F0" offset="0%"></stop>
            <stop stop-color="#4326A4" offset="100%"></stop>
        </linearGradient>
    </defs>
    <g id="iPhone-7-Plus-Copy" stroke="none" stroke-width="1" fill="none" fill-rule="evenodd" transform="translate(-46.000000, -433.000000)">
        <g id="Folders-Copy-4" transform="translate(11.000000, 83.000000)">
            <g id="Data-Structure" transform="translate(1.000000, 336.000000)">
                <g id="content" transform="translate(15.000000, 3.000000)">
                    <g id="Group-3" transform="translate(19.000000, 11.000000)">
                        <g id="Group-2">
                            <path d="M33.1856946,1.81842662 L62.0733417,52.2495475 C62.5842358,53.14145 62.2753676,54.2786414 61.383465,54.7895355 C61.1018519,54.9508475 60.7829513,55.0357143 60.4584093,55.0357143 L2.68311508,55.0357143 C1.6552518,55.0357143 0.822003971,54.2024665 0.822003971,53.1746032 C0.822003971,52.8500612 0.906870793,52.5311606 1.06818273,52.2495475 L29.9558299,1.81842662 C30.466724,0.926524107 31.6039154,0.61765581 32.4958179,1.12854997 C32.7830324,1.2930704 33.0211741,1.53121217 33.1856946,1.81842662 Z M22.3561317,19.4505037 L22.3561317,52.544474 C38.7110087,53.1375216 46.8884472,47.6218599 46.8884472,35.9974889 C46.8884472,24.3731178 38.7110087,18.8574561 22.3561317,19.4505037 Z" id="Combined-Shape" fill="url(#linearGradient-1)"></path>
                            <g id="Group" transform="translate(26.470588, 25.523810)">
                                <path d="M0,7.44444444 L5.29411765,7.44444444 L5.29411765,21.2698413 L0,21.2698413 L0,7.44444444 Z M2.64705882,5.31746032 C1.1851286,5.31746032 0,4.12710628 0,2.65873016 C0,1.19035404 1.1851286,0 2.64705882,0 C4.10898904,0 5.29411765,1.19035404 5.29411765,2.65873016 C5.29411765,4.12710628 4.10898904,5.31746032 2.64705882,5.31746032 Z" id="i" fill="url(#linearGradient-2)"></path>
                                <polyline id="t" stroke="url(#linearGradient-2)" stroke-width="1.86111111" points="10.1895421 0 10.1911765 3.96332444 15.3529412 3.96332444 15.3529412 8.24206349 10.1895421 8.24206349 10.1895421 21.2698413"></polyline>
                            </g>
                        </g>
                        <g id="ADIT" transform="translate(3.176471, 55.833333)" fill="url(#linearGradient-3)" stroke="url(#linearGradient-3)" stroke-width="0.531746032">
                            <path d="M54.81,2.19167612 L54.81,0.571955083 C54.81,0.469168754 54.7266752,0.385843972 54.6238889,0.385843972 L45.0516405,0.385843972 C44.9488542,0.385843972 44.8655294,0.469168754 44.8655294,0.571955083 L44.8655294,2.19167612 C44.8655294,2.29446245 44.9488542,2.37778723 45.0516405,2.37778723 L47.9956704,2.37778723 C48.3627644,2.37778723 48.6603529,2.67537574 48.6603529,3.04246977 L48.6603529,10.9805556 C48.6603529,11.0833419 48.7436777,11.1666667 48.8464641,11.1666667 L50.8290654,11.1666667 C50.9318517,11.1666667 51.0151765,11.0833419 51.0151765,10.9805556 L51.0151765,3.04246977 C51.0151765,2.67537574 51.312765,2.37778723 51.679859,2.37778723 L54.6238889,2.37778723 C54.7266752,2.37778723 54.81,2.29446245 54.81,2.19167612 Z" id="T"></path>
                            <path d="M37.7745882,10.9805556 L37.7745882,0.571955083 C37.7745882,0.469168754 37.6912635,0.385843972 37.5884771,0.385843972 L35.5889346,0.385843972 C35.4861483,0.385843972 35.4028235,0.469168754 35.4028235,0.571955083 L35.4028235,10.9805556 C35.4028235,11.0833419 35.4861483,11.1666667 35.5889346,11.1666667 L37.5884771,11.1666667 C37.6912635,11.1666667 37.7745882,11.0833419 37.7745882,10.9805556 Z" id="I"></path>
                            <path d="M21.2709225,8.98275177 L22.6027059,8.98275177 C24.5678824,8.98275177 26.2111765,7.88794326 26.2111765,5.5462695 C26.2111765,3.20459574 24.5848235,2.09458156 22.6196471,2.09458156 L21.2709225,2.09458156 C20.9772473,2.09458156 20.7391765,2.33265237 20.7391765,2.62632759 L20.7391765,8.45100574 C20.7391765,8.74468097 20.9772473,8.98275177 21.2709225,8.98275177 Z M22.6874118,10.929078 L19.1989132,10.929078 C18.7584003,10.929078 18.4012941,10.5719718 18.4012941,10.131459 L18.4012941,0.945874367 C18.4012941,0.505361531 18.7584003,0.148255319 19.1989132,0.148255319 L22.7043529,0.148255319 C26.1264706,0.148255319 28.6337647,2.14019858 28.6337647,5.5462695 C28.6337647,8.95234043 26.1095294,10.929078 22.6874118,10.929078 Z" id="D"></path>
                            <path d="M9.18292729,11.019362 L6.04853329,2.99343762 L2.81248327,11.019362 L0,11.019362 L3.92390846,1.66711551 C4.28727175,0.801075165 5.13476746,0.237588652 6.07394729,0.237588652 L6.07394729,0.237588652 C7.01244163,0.237588652 7.85862104,0.802653099 8.2182413,1.66951231 L12.0970666,11.019362 L9.18292729,11.019362 Z" id="A"></path>
                        </g>
                    </g>
                </g>
            </g>
        </g>
    </g>
</svg>