<?xml version="1.0" encoding="UTF-8"?>
<svg width="11px" height="14px" viewBox="0 0 11 14" version="1.1" xmlns="http://www.w3.org/2000/svg" xmlns:xlink="http://www.w3.org/1999/xlink">
    <!-- Generator: Sketch 48 (47235) - http://www.bohemiancoding.com/sketch -->
    <title>Fill 162</title>
    <desc>Created with Sketch.</desc>
    <defs></defs>
    <g id="Home-Copy" stroke="none" stroke-width="1" fill="none" fill-rule="evenodd" transform="translate(-30.000000, -3104.000000)">
        <g id="List_home" transform="translate(4.000000, 91.000000)" fill="#1016EA">
            <g id="event" transform="translate(7.491464, 2781.425811)">
                <g id="Locatio" transform="translate(18.667077, 230.050987)">
                    <path d="M5.20743712,7.91066164 C4.50944306,7.91066164 3.94371825,7.34493683 3.94371825,6.64694277 C3.94371825,5.94894872 4.50944306,5.3832239 5.20743712,5.3832239 C5.90543118,5.3832239 6.47115599,5.94894872 6.47115599,6.64694277 C6.47115599,7.34493683 5.90543118,7.91066164 5.20743712,7.91066164 L5.20743712,7.91066164 Z M5.20743712,4.54074465 C4.04439452,4.54074465 3.101239,5.48347893 3.101239,6.64694277 C3.101239,7.81040661 4.04439452,8.75314089 5.20743712,8.75314089 C6.37047972,8.75314089 7.31363524,7.81040661 7.31363524,6.64694277 C7.31363524,5.48347893 6.37047972,4.54074465 5.20743712,4.54074465 L5.20743712,4.54074465 Z M5.20743712,13.8080164 C4.50691562,13.8118075 0.995040882,8.40814564 0.995040882,6.64694277 C0.995040882,4.32085757 2.88093068,2.43454653 5.20743712,2.43454653 C7.53394356,2.43454653 9.41983336,4.32085757 9.41983336,6.64694277 C9.41983336,8.38455622 5.89700638,13.8118075 5.20743712,13.8080164 L5.20743712,13.8080164 Z M5.20743712,1.59206729 C2.41588213,1.59206729 0.152561634,3.85538779 0.152561634,6.64694277 C0.152561634,8.7607232 4.36706407,15.0763689 5.20743712,15.0717352 C6.03475174,15.0763689 10.2623126,8.73207891 10.2623126,6.64694277 C10.2623126,3.85538779 7.99899211,1.59206729 5.20743712,1.59206729 L5.20743712,1.59206729 Z" id="Fill-162"></path>
                </g>
            </g>
        </g>
    </g>
</svg>