<?xml version="1.0" encoding="UTF-8"?>
<svg width="76px" height="67px" viewBox="0 0 76 67" version="1.1" xmlns="http://www.w3.org/2000/svg" xmlns:xlink="http://www.w3.org/1999/xlink">
    <!-- Generator: Sketch 48 (47235) - http://www.bohemiancoding.com/sketch -->
    <title>Page 1</title>
    <desc>Created with Sketch.</desc>
    <defs>
        <linearGradient x1="-245.373535%" y1="-24.1753472%" x2="1108.02002%" y2="448.149957%" id="linearGradient-1">
            <stop stop-color="#D5EFFF" offset="0%"></stop>
            <stop stop-color="#B1DDFF" offset="84.0209254%"></stop>
            <stop stop-color="#ACDBFF" offset="95.14747%"></stop>
            <stop stop-color="#AADAFF" offset="100%"></stop>
        </linearGradient>
        <linearGradient x1="-316.455078%" y1="-20.4861111%" x2="299.768066%" y2="170.578342%" id="linearGradient-2">
            <stop stop-color="#2D52F0" offset="0%"></stop>
            <stop stop-color="#4326A4" offset="100%"></stop>
        </linearGradient>
        <linearGradient x1="-506.835938%" y1="-4414.45312%" x2="4371.58046%" y2="3824.4654%" id="linearGradient-3">
            <stop stop-color="#536EE1" offset="0%"></stop>
            <stop stop-color="#4326A4" offset="100%"></stop>
        </linearGradient>
    </defs>
    <g id="iPhone-7-Plus-Copy" stroke="none" stroke-width="1" fill="none" fill-rule="evenodd" transform="translate(-40.000000, -97.000000)">
        <g id="Folders-Copy-4" transform="translate(11.000000, 83.000000)" stroke-width="2.33333333">
            <g id="Data-Structure">
                <g id="content" transform="translate(15.000000, 3.000000)">
                    <g id="Page-1" transform="translate(16.000000, 13.000000)">
                        <polyline id="Stroke-1" stroke="url(#linearGradient-2)" fill="url(#linearGradient-1)" points="59.2258065 42 53.4193548 42 53.4193548 0 72 0 72 42 66.1935484 42"></polyline>
                        <polyline id="Stroke-3" stroke="url(#linearGradient-2)" fill="url(#linearGradient-1)" points="36 42 48.7741935 42 48.7741935 63 0 63 0 42 12.7741935 42"></polyline>
                        <path d="M9.29032258,52.5 L11.6129032,52.5" id="Stroke-6" stroke="url(#linearGradient-3)" fill="url(#linearGradient-1)"></path>
                        <path d="M13.9354839,52.5 L16.2580645,52.5" id="Stroke-7" stroke="url(#linearGradient-3)" fill="url(#linearGradient-1)"></path>
                        <path d="M18.5806452,52.5 L20.9032258,52.5" id="Stroke-8" stroke="url(#linearGradient-3)" fill="url(#linearGradient-1)"></path>
                        <path d="M23.2258065,52.5 L25.5483871,52.5" id="Stroke-9" stroke="url(#linearGradient-3)" fill="url(#linearGradient-1)"></path>
                        <path d="M27.8709677,52.5 L30.1935484,52.5" id="Stroke-10" stroke="url(#linearGradient-3)" fill="url(#linearGradient-1)"></path>
                        <path d="M32.516129,52.5 L34.8387097,52.5" id="Stroke-11" stroke="url(#linearGradient-3)" fill="url(#linearGradient-1)"></path>
                        <path d="M37.1612903,52.5 L39.483871,52.5" id="Stroke-12" stroke="url(#linearGradient-3)" fill="url(#linearGradient-1)"></path>
                        <path d="M9.29032258,57.1666667 L11.6129032,57.1666667" id="Stroke-13" stroke="url(#linearGradient-3)" fill="url(#linearGradient-1)"></path>
                        <path d="M4.64516129,52.5 L6.96774194,52.5" id="Stroke-14" stroke="url(#linearGradient-3)" fill="url(#linearGradient-1)"></path>
                        <path d="M4.64516129,57.1666667 L6.96774194,57.1666667" id="Stroke-15" stroke="url(#linearGradient-3)" fill="url(#linearGradient-1)"></path>
                        <path d="M41.8064516,52.5 L44.1290323,52.5" id="Stroke-16" stroke="url(#linearGradient-3)" fill="url(#linearGradient-1)"></path>
                        <path d="M9.29032258,47.8333333 L11.6129032,47.8333333" id="Stroke-17" stroke="url(#linearGradient-3)" fill="url(#linearGradient-1)"></path>
                        <path d="M13.9354839,47.8333333 L16.2580645,47.8333333" id="Stroke-18" stroke="url(#linearGradient-3)" fill="url(#linearGradient-1)"></path>
                        <path d="M18.5806452,47.8333333 L20.9032258,47.8333333" id="Stroke-19" stroke="url(#linearGradient-3)" fill="url(#linearGradient-1)"></path>
                        <path d="M23.2258065,47.8333333 L25.5483871,47.8333333" id="Stroke-20" stroke="url(#linearGradient-3)" fill="url(#linearGradient-1)"></path>
                        <path d="M27.8709677,47.8333333 L30.1935484,47.8333333" id="Stroke-21" stroke="url(#linearGradient-3)" fill="url(#linearGradient-1)"></path>
                        <path d="M32.516129,47.8333333 L34.8387097,47.8333333" id="Stroke-22" stroke="url(#linearGradient-3)" fill="url(#linearGradient-1)"></path>
                        <path d="M37.1612903,47.8333333 L39.483871,47.8333333" id="Stroke-23" stroke="url(#linearGradient-3)" fill="url(#linearGradient-1)"></path>
                        <path d="M4.64516129,47.8333333 L6.96774194,47.8333333" id="Stroke-24" stroke="url(#linearGradient-3)" fill="url(#linearGradient-1)"></path>
                        <path d="M41.8064516,47.8333333 L44.1290323,47.8333333" id="Stroke-25" stroke="url(#linearGradient-3)" fill="url(#linearGradient-1)"></path>
                        <path d="M41.8064516,57.1666667 L44.1290323,57.1666667" id="Stroke-26" stroke="url(#linearGradient-3)" fill="url(#linearGradient-1)"></path>
                        <path d="M13.9354839,57.1666667 L16.2580645,57.1666667" id="Stroke-27" stroke="url(#linearGradient-3)" fill="url(#linearGradient-1)"></path>
                        <path d="M18.5806452,57.1666667 L30.1935484,57.1666667" id="Stroke-28" stroke="url(#linearGradient-3)" fill="url(#linearGradient-1)"></path>
                        <path d="M32.516129,57.1666667 L34.8387097,57.1666667" id="Stroke-29" stroke="url(#linearGradient-3)" fill="url(#linearGradient-1)"></path>
                        <path d="M37.1612903,57.1666667 L39.483871,57.1666667" id="Stroke-30" stroke="url(#linearGradient-3)" fill="url(#linearGradient-1)"></path>
                        <polygon id="Stroke-31" stroke="url(#linearGradient-3)" fill="url(#linearGradient-1)" points="58.0645161 9.33333333 67.3548387 9.33333333 67.3548387 4.66666667 58.0645161 4.66666667"></polygon>
                        <polygon id="Stroke-32" stroke="url(#linearGradient-3)" points="58.0645161 18.6666667 67.3548387 18.6666667 67.3548387 14 58.0645161 14"></polygon>
                        <path d="M48.7741935,33.8333333 C48.7741935,34.4785 48.2550968,35 47.6129032,35 L1.16129032,35 C0.519096774,35 0,34.4785 0,33.8333333 L0,1.16666667 C0,0.5215 0.519096774,0 1.16129032,0 L47.6129032,0 C48.2550968,0 48.7741935,0.5215 48.7741935,1.16666667 L48.7741935,33.8333333 Z" id="Stroke-33" stroke="url(#linearGradient-3)"></path>
                        <path d="M30.1935484,35 L30.1935484,42" id="Stroke-35" stroke="url(#linearGradient-3)" fill="url(#linearGradient-1)"></path>
                        <path d="M18.5806452,42 L18.5806452,35" id="Stroke-37" stroke="url(#linearGradient-3)" fill="url(#linearGradient-1)"></path>
                        <path d="M15.0967742,42 L33.6774194,42" id="Stroke-39" stroke="url(#linearGradient-3)" fill="url(#linearGradient-1)"></path>
                        <path d="M66.1935484,61.8333333 C66.1935484,62.4785 65.6744516,63 65.0322581,63 L60.3870968,63 C59.7449032,63 59.2258065,62.4785 59.2258065,61.8333333 L59.2258065,52.5 C59.2258065,51.8548333 59.7449032,51.3333333 60.3870968,51.3333333 L65.0322581,51.3333333 C65.6744516,51.3333333 66.1935484,51.8548333 66.1935484,52.5 L66.1935484,61.8333333 Z" id="Stroke-41" stroke="url(#linearGradient-3)" fill="url(#linearGradient-1)"></path>
                        <path d="M62.7096774,47.8333333 L62.7096774,43.1666667 C62.7096774,42.5215 63.2287742,42 63.8709677,42 L66.1935484,42" id="Stroke-43" stroke="url(#linearGradient-3)" fill="url(#linearGradient-1)"></path>
                        <path d="M66.1935484,32.6666667 C66.1935484,34.5986667 64.6327742,36.1666667 62.7096774,36.1666667 C60.7865806,36.1666667 59.2258065,34.5986667 59.2258065,32.6666667 C59.2258065,30.7346667 60.7865806,29.1666667 62.7096774,29.1666667 C64.6327742,29.1666667 66.1935484,30.7346667 66.1935484,32.6666667 Z" id="Stroke-45" stroke="url(#linearGradient-3)" fill="url(#linearGradient-1)"></path>
                        <polyline id="Stroke-47" stroke="url(#linearGradient-3)" fill="url(#linearGradient-1)" points="11.6129032 30.3333333 4.64516129 30.3333333 4.64516129 4.66666667 44.1290323 4.66666667 44.1290323 30.3333333 37.1612903 30.3333333"></polyline>
                        <path d="M23.2258065,30.3333333 L25.5483871,30.3333333" id="Stroke-49" stroke="url(#linearGradient-3)" fill="url(#linearGradient-1)"></path>
                        <path d="M18.5806452,30.3333333 L20.9032258,30.3333333" id="Stroke-51" stroke="url(#linearGradient-3)" fill="url(#linearGradient-1)"></path>
                        <path d="M32.516129,30.3333333 L34.8387097,30.3333333" id="Stroke-53" stroke="url(#linearGradient-3)" fill="url(#linearGradient-1)"></path>
                        <path d="M27.8709677,30.3333333 L30.1935484,30.3333333" id="Stroke-55" stroke="url(#linearGradient-3)" fill="url(#linearGradient-1)"></path>
                        <path d="M13.9354839,30.3333333 L16.2580645,30.3333333" id="Stroke-57" stroke="url(#linearGradient-3)" fill="url(#linearGradient-1)"></path>
                    </g>
                </g>
            </g>
        </g>
    </g>
</svg>