<?xml version="1.0" encoding="UTF-8"?>
<svg width="184px" height="133px" viewBox="0 0 184 133" version="1.1" xmlns="http://www.w3.org/2000/svg" xmlns:xlink="http://www.w3.org/1999/xlink">
    <!-- Generator: Sketch 48 (47235) - http://www.bohemiancoding.com/sketch -->
    <title>icon</title>
    <desc>Created with Sketch.</desc>
    <defs>
        <linearGradient x1="24.3096344%" y1="0%" x2="68.8246983%" y2="93.9585879%" id="linearGradient-1">
            <stop stop-color="#D5EFFF" offset="0%"></stop>
            <stop stop-color="#AAC8FF" offset="100%"></stop>
        </linearGradient>
        <linearGradient x1="-1641.45277%" y1="-170.426895%" x2="821.030724%" y2="1621.93119%" id="linearGradient-2">
            <stop stop-color="#6E89FF" offset="0%"></stop>
            <stop stop-color="#2831C9" offset="100%"></stop>
        </linearGradient>
        <polygon id="path-3" points="1.40348272 8.4979012 0.189701452 8.4979012 0.189701452 0.000106223765 1.40348272 0.000106223765"></polygon>
        <polygon id="path-5" points="0 78.6055861 182.691208 78.6055861 182.691208 0 0 0"></polygon>
    </defs>
    <g id="iPhone-7-Plus-Copy-2" stroke="none" stroke-width="1" fill="none" fill-rule="evenodd" transform="translate(-114.000000, -68.000000)">
        <g id="It-channel" transform="translate(92.000000, 68.000000)">
            <g id="icon" transform="translate(22.000000, 0.000000)">
                <g id="Group-4-Copy" opacity="0.270776721" transform="translate(0.174336, 54.456109)">
                    <path d="M26.6806668,0 L125.019264,0 C128.884569,-2.12163437e-14 132.848573,3.64707766 133.873115,8.14597595 C134.897657,12.6448742 132.336339,16.2919519 128.152252,16.2919519 L21.7033836,16.2919519 C17.5192959,16.2919519 15.3708378,12.6448742 16.9046681,8.14597595 C18.4384984,3.64707766 22.8153621,8.26434208e-16 26.6806668,0 Z M34.6176735,16.2919519 L124.641813,16.2919519 C128.948038,16.2919519 133.119704,19.5109478 133.95949,23.4817805 C134.799276,27.4526132 131.754421,30.6716091 127.158618,30.6716091 L31.0806696,30.6716091 C26.4848658,30.6716091 23.6683908,27.4526132 24.7898968,23.4817805 C25.9114027,19.5109478 30.3114482,16.2919519 34.6176735,16.2919519 Z M29.3965322,46.9685539 L140.08648,46.9685539 C145.735443,46.9685539 150.932529,50.1875498 151.694496,54.1583825 C152.456462,58.1292152 148.225457,61.3482111 142.24428,61.3482111 L25.0446882,61.3482111 C19.0635114,61.3482111 15.3236594,58.1292152 16.6914948,54.1583825 C18.0593303,50.1875498 23.7475693,46.9685539 29.3965322,46.9685539 Z M11.3709946,30.6716091 L140.575052,30.6716091 C145.122517,30.6716091 149.971863,34.3186868 151.406369,38.817585 C152.840875,43.3164833 150.054152,46.963561 145.182049,46.963561 L6.75427996,46.963561 C1.88217742,46.963561 -0.90236989,43.3164833 0.534819476,38.817585 C1.97200884,34.3186868 6.82352968,30.6716091 11.3709946,30.6716091 Z M22.6203924,61.3551182 L146.443537,61.3551182 C150.96315,61.3551182 155.694044,64.9867402 157.010286,69.466573 C158.326528,73.9464058 155.499061,77.5780278 150.694962,77.5780278 L19.0777926,77.5780278 C14.2736935,77.5780278 11.2875506,73.9464058 12.4080556,69.466573 C13.5285606,64.9867402 18.1007796,61.3551182 22.6203924,61.3551182 Z" id="Combined-Shape" fill="url(#linearGradient-1)"></path>
                    <g id="Group-3" transform="translate(11.840253, 16.194732)" fill="#FFFFFF">
                        <path d="M9.13140371,0.0972194951 L23.8099779,0.0972194951 C27.1160453,0.0972194951 29.0827373,3.31621541 28.2027076,7.2870481 C27.3226778,11.2578808 23.7341806,14.4768767 20.1875746,14.4768767 L4.44103559,14.4768767 C0.894429632,14.4768767 -0.833190366,11.2578808 0.582288323,7.2870481 C1.99776701,3.31621541 5.82533635,0.0972194951 9.13140371,0.0972194951 Z" id="Rectangle-12-Copy-4"></path>
                        <path d="M114.745261,0 L129.424206,0 C132.730357,1.44531988e-15 135.75009,3.21899591 136.168969,7.1898286 C136.587847,11.1606613 134.052256,14.3796572 130.505566,14.3796572 L114.758656,14.3796572 C111.211967,14.3796572 108.431306,11.1606613 108.547876,7.1898286 C108.664446,3.21899591 111.43911,7.33777783e-16 114.745261,0 Z" id="Rectangle-12-Copy-5"></path>
                    </g>
                    <g id="Group-3-Copy" transform="translate(12.497343, 46.871334)" fill="#FFFFFF">
                        <path d="M9.04351327,0 L23.7220875,0 C27.0281548,1.43319965e-15 28.9948469,3.24187694 28.1148171,7.24093482 C27.2347874,11.2399927 23.6462901,14.4818696 20.0996842,14.4818696 L4.35314514,14.4818696 C0.806539185,14.4818696 -0.921080813,11.2399927 0.494397876,7.24093482 C1.90987657,3.24187694 5.7374459,7.72584186e-16 9.04351327,0 Z" id="Rectangle-12-Copy-4"></path>
                        <path d="M120.494195,0 L135.17314,0 C138.479291,1.40084849e-15 141.438359,3.21899591 141.782403,7.1898286 C142.126448,11.1606613 139.530191,14.3796572 135.983501,14.3796572 L120.236591,14.3796572 C116.689902,14.3796572 113.969906,11.1606613 114.161311,7.1898286 C114.352715,3.21899591 117.188044,7.11542093e-16 120.494195,0 Z" id="Rectangle-12-Copy-5"></path>
                    </g>
                </g>
                <g id="bg-p" opacity="0.880264946" transform="translate(1.221026, 0.393555)">
                    <path d="M174.964379,31.6359335 L181.397871,25.20196 C181.69262,24.9071891 182.175106,24.9071891 182.47012,25.20196 C182.764869,25.496731 182.764869,25.979518 182.47012,26.2742889 L176.036628,32.7082624 C175.741879,33.0030333 175.259128,33.0030333 174.964379,32.7082624 C174.66963,32.4132259 174.66963,31.9307044 174.964379,31.6359335 Z" id="Fill-1" fill="url(#linearGradient-2)"></path>
                    <path d="M176.036654,25.20196 L182.470147,31.6359335 C182.764895,31.9307044 182.764895,32.4132259 182.470147,32.7082624 C182.175132,33.0030333 181.692647,33.0030333 181.397898,32.7082624 L174.964406,26.2742889 C174.669657,25.979518 174.669657,25.496731 174.964406,25.20196 C175.259155,24.9071891 175.741905,24.9071891 176.036654,25.20196" id="Fill-3" fill="url(#linearGradient-2)"></path>
                    <path d="M15.4012937,58.9541896 C14.2276089,58.9541896 13.2769773,58.0034869 13.2769773,56.8297143 C13.2769773,55.6559416 14.2276089,54.705239 15.4012937,54.705239 C16.5749785,54.705239 17.5256101,55.6559416 17.5256101,56.8297143 C17.5256101,58.0034869 16.5749785,58.9541896 15.4012937,58.9541896 M15.4012937,53.1118825 C13.348673,53.1118825 11.6837401,54.77694 11.6837401,56.8297143 C11.6837401,58.8824885 13.348673,60.547546 15.4012937,60.547546 C17.4539144,60.547546 19.1188474,58.8824885 19.1188474,56.8297143 C19.1188474,54.77694 17.4539144,53.1118825 15.4012937,53.1118825" id="Fill-5" fill="url(#linearGradient-2)"></path>
                    <path d="M156.137254,72.763279 C156.137254,73.6430773 155.423749,74.3566355 154.544016,74.3566355 C153.664284,74.3566355 152.950779,73.6430773 152.950779,72.763279 C152.950779,71.8834807 153.664284,71.1699225 154.544016,71.1699225 C155.423749,71.1699225 156.137254,71.8834807 156.137254,72.763279" id="Fill-7" fill="url(#linearGradient-2)"></path>
                    <g id="Group-11" transform="translate(28.943811, 70.107685)">
                        <mask id="mask-4" fill="white">
                            <use xlink:href="#path-3"></use>
                        </mask>
                        <g id="Clip-10"></g>
                        <path d="M0.189701452,7.8909386 L0.189701452,0.606909481 C0.189701452,0.2731013 0.462676106,0.000106223765 0.796724856,0.000106223765 C1.13050807,0.000106223765 1.40348272,0.2731013 1.40348272,0.606909481 L1.40348272,7.8909386 C1.40348272,8.22474679 1.13050807,8.49800742 0.796724856,8.49800742 C0.462676106,8.49800742 0.189701452,8.22474679 0.189701452,7.8909386" id="Fill-9" fill="#AADAFF" mask="url(#mask-4)"></path>
                    </g>
                    <path d="M26.0987137,73.7496729 L33.3821979,73.7496729 C33.7159811,73.7496729 33.9889558,74.022668 33.9889558,74.3567417 C33.9889558,74.6905499 33.7159811,74.963545 33.3821979,74.963545 L26.0987137,74.963545 C25.7649305,74.963545 25.4916903,74.6905499 25.4916903,74.3567417 C25.4916903,74.022668 25.7649305,73.7496729 26.0987137,73.7496729" id="Fill-12" fill="url(#linearGradient-2)"></path>
                    <polygon id="Fill-14" fill="url(#linearGradient-2)" points="0 31.3360107 0 36.6471989 4.59914495 39.302793 9.19855544 36.6471989 9.19855544 31.3360107 4.59914495 28.6804165"></polygon>
                    <path d="M21.2431637,13.2779706 C21.2431637,14.7446553 20.0543432,15.9335647 18.5877683,15.9335647 C17.1211934,15.9335647 15.9323728,14.7446553 15.9323728,13.2779706 C15.9323728,11.811286 17.1211934,10.6223765 18.5877683,10.6223765 C20.0543432,10.6223765 21.2431637,11.811286 21.2431637,13.2779706" id="Fill-16" fill="url(#linearGradient-2)"></path>
                    <polygon id="Fill-18" fill="url(#linearGradient-2)" points="145.515672 12.7468518 154.012937 4.2489506 154.012937 12.7468518"></polygon>
                    <path d="M41.7886489,29.3938419 L50.9834868,29.3938419 L46.3862006,33.991472 C44.8535063,32.4589286 43.3210776,30.9263853 41.7886489,29.3938419" id="Fill-20" fill="url(#linearGradient-2)"></path>
                    <mask id="mask-6" fill="white">
                        <use xlink:href="#path-5"></use>
                    </mask>
                    <g id="Clip-23"></g>
                    <polygon id="Fill-22" fill="url(#linearGradient-2)" mask="url(#mask-6)" points="79.661864 6.3734259 86.0348132 6.3734259 86.0348132 0 79.661864 0"></polygon>
                    <path d="M114.713084,15.9335647 L114.713084,3.18671295 C114.713084,2.60248224 115.191055,2.1244753 115.775242,2.1244753 C116.359429,2.1244753 116.837401,2.60248224 116.837401,3.18671295 L116.837401,15.9335647 C116.837401,16.5177955 116.359429,16.9958024 115.775242,16.9958024 C115.191055,16.9958024 114.713084,16.5177955 114.713084,15.9335647" id="Fill-24" fill="url(#linearGradient-2)" mask="url(#mask-6)"></path>
                    <path d="M109.402293,8.4979012 L122.148192,8.4979012 C122.732379,8.4979012 123.21035,8.97590814 123.21035,9.56013885 C123.21035,10.1443696 122.732379,10.6223765 122.148192,10.6223765 L109.402293,10.6223765 C108.818106,10.6223765 108.340135,10.1443696 108.340135,9.56013885 C108.340135,8.97590814 108.818106,8.4979012 109.402293,8.4979012" id="Fill-25" fill="url(#linearGradient-2)" mask="url(#mask-6)"></path>
                    <path d="M130.645457,32.9293671 C128.298087,32.9293671 126.396824,31.0279617 126.396824,28.6804165 C126.396824,26.3328713 128.298087,24.4314659 130.645457,24.4314659 C132.992827,24.4314659 134.89409,26.3328713 134.89409,28.6804165 C134.89409,31.0279617 132.992827,32.9293671 130.645457,32.9293671 M130.645457,21.244753 C126.540216,21.244753 123.21035,24.574868 123.21035,28.6804165 C123.21035,32.7859651 126.540216,36.1160801 130.645457,36.1160801 C134.750698,36.1160801 138.080564,32.7859651 138.080564,28.6804165 C138.080564,24.574868 134.750698,21.244753 130.645457,21.244753" id="Fill-26" fill="url(#linearGradient-2)" mask="url(#mask-6)"></path>
                    <path d="M180.566892,54.705239 C180.566892,55.5850373 179.853387,56.2985954 178.973655,56.2985954 C178.093922,56.2985954 177.380417,55.5850373 177.380417,54.705239 C177.380417,53.8254406 178.093922,53.1118825 178.973655,53.1118825 C179.853387,53.1118825 180.566892,53.8254406 180.566892,54.705239" id="Fill-27" fill="url(#linearGradient-2)" mask="url(#mask-6)"></path>
                    <path d="M45.2923901,9.84747413 L49.1466966,5.99287926 C49.3232804,5.81628225 49.612453,5.81628225 49.7890368,5.99287926 C49.9656206,6.16974183 49.9656206,6.45867047 49.7890368,6.63553304 L45.9347303,10.4898623 C45.7581465,10.6664594 45.4692394,10.6664594 45.2923901,10.4898623 C45.1158063,10.3132653 45.1158063,10.0240711 45.2923901,9.84747413" id="Fill-28" fill="url(#linearGradient-2)" mask="url(#mask-6)"></path>
                    <path d="M45.9348365,5.99298548 L49.7888775,9.84758035 C49.9657268,10.0241774 49.9657268,10.3133716 49.7888775,10.4899686 C49.6122937,10.6665656 49.3231211,10.6665656 49.1465373,10.4899686 L45.2924963,6.6353737 C45.1159125,6.45877669 45.1159125,6.16984805 45.2924963,5.99298548 C45.4690801,5.81638847 45.7579871,5.81638847 45.9348365,5.99298548" id="Fill-29" fill="url(#linearGradient-2)" mask="url(#mask-6)"></path>
                    <polygon id="Fill-30" fill="url(#linearGradient-2)" mask="url(#mask-6)" points="152.950779 35.9076956 152.950779 39.5872868 156.137254 41.427348 159.323728 39.5872868 159.323728 35.9076956 156.137254 34.0679"></polygon>
                    <path d="M87.8213632,26.8937328 C87.5558237,26.6281734 87.1211354,26.6281734 86.8555959,26.8937328 L85.4073432,28.3423594 C85.1418037,28.6079188 85.1418037,29.042374 85.4073432,29.3079334 C85.6728828,29.5734928 86.1073055,29.5734928 86.372845,29.3079334 L87.8213632,27.8595724 C88.0869028,27.594013 88.0869028,27.1592922 87.8213632,26.8937328" id="Fill-31" fill="url(#linearGradient-2)" mask="url(#mask-6)"></path>
                    <path d="M83.4758882,31.2395329 C83.2103487,30.9739735 82.775926,30.9739735 82.5103864,31.2395329 L81.0618682,32.6881595 C80.7963286,32.9537189 80.7963286,33.3881741 81.0618682,33.6537335 C81.3274077,33.919293 81.7618304,33.919293 82.02737,33.6537335 L83.4758882,32.205107 C83.7414278,31.9395475 83.7414278,31.5050923 83.4758882,31.2395329" id="Fill-32" fill="url(#linearGradient-2)" mask="url(#mask-6)"></path>
                    <path d="M87.8213632,33.6538132 C88.0869028,33.3882538 88.0869028,32.953533 87.8213632,32.6879736 L86.372845,31.2396126 C86.1073055,30.9740532 85.6728828,30.9740532 85.4073432,31.2396126 C85.1418037,31.505172 85.1418037,31.9396272 85.4073432,32.2051866 L86.8555959,33.6538132 C87.1211354,33.9193726 87.5558237,33.9193726 87.8213632,33.6538132" id="Fill-33" fill="url(#linearGradient-2)" mask="url(#mask-6)"></path>
                    <path d="M83.4758882,29.3080131 C83.7414278,29.0424537 83.7414278,28.6079985 83.4758882,28.3424391 L82.02737,26.8938125 C81.7618304,26.6282531 81.3274077,26.6282531 81.0618682,26.8938125 C80.7963286,27.1593719 80.7963286,27.5938271 81.0618682,27.8593865 L82.5103864,29.3080131 C82.775926,29.5735725 83.2103487,29.5735725 83.4758882,29.3080131" id="Fill-34" fill="url(#linearGradient-2)" mask="url(#mask-6)"></path>
                    <path d="M84.4415759,25.4937036 C84.066103,25.4937036 83.7588737,25.8009558 83.7588737,26.1764568 L83.7588737,28.2252477 C83.7588737,28.6007487 84.066103,28.908001 84.4415759,28.908001 C84.8170488,28.908001 85.1242781,28.6007487 85.1242781,28.2252477 L85.1242781,26.1764568 C85.1242781,25.8009558 84.8170488,25.4937036 84.4415759,25.4937036" id="Fill-35" fill="url(#linearGradient-2)" mask="url(#mask-6)"></path>
                    <path d="M84.4415759,31.6395716 C84.066103,31.6395716 83.7588737,31.9468239 83.7588737,32.3223249 L83.7588737,34.3711157 C83.7588737,34.7466168 84.066103,35.053869 84.4415759,35.053869 C84.8170488,35.053869 85.1242781,34.7466168 85.1242781,34.3711157 L85.1242781,32.3223249 C85.1242781,31.9468239 84.8170488,31.6395716 84.4415759,31.6395716" id="Fill-36" fill="url(#linearGradient-2)" mask="url(#mask-6)"></path>
                    <path d="M89.2212877,30.273773 C89.2212877,29.898272 88.9140585,29.5910198 88.5385855,29.5910198 L86.4899479,29.5910198 C86.114475,29.5910198 85.8072458,29.898272 85.8072458,30.273773 C85.8072458,30.649274 86.114475,30.9565263 86.4899479,30.9565263 L88.5385855,30.9565263 C88.9140585,30.9565263 89.2212877,30.649274 89.2212877,30.273773" id="Fill-37" fill="url(#linearGradient-2)" mask="url(#mask-6)"></path>
                    <path d="M83.0758794,30.273773 C83.0758794,29.898272 82.7686502,29.5910198 82.3931773,29.5910198 L80.3445397,29.5910198 C79.9690667,29.5910198 79.6618375,29.898272 79.6618375,30.273773 C79.6618375,30.649274 79.9690667,30.9565263 80.3445397,30.9565263 L82.3931773,30.9565263 C82.7686502,30.9565263 83.0758794,30.649274 83.0758794,30.273773" id="Fill-38" fill="url(#linearGradient-2)" mask="url(#mask-6)"></path>
                    <path d="M154.452857,56.9208808 C154.334957,56.8027069 154.141644,56.8027069 154.023745,56.9208808 L153.379811,57.5645968 C153.261912,57.6827708 153.261912,57.8758324 153.379811,57.9940064 C153.497976,58.1119148 153.691024,58.1119148 153.809189,57.9940064 L154.452857,57.3500248 C154.571022,57.2321164 154.571022,57.0387892 154.452857,56.9208808" id="Fill-39" fill="url(#linearGradient-2)" mask="url(#mask-6)"></path>
                    <path d="M152.521614,58.8522678 C152.403714,58.7343595 152.210402,58.7343595 152.092502,58.8522678 L151.448569,59.4959839 C151.330669,59.6141578 151.330669,59.8072195 151.448569,59.9253934 C151.566734,60.0433018 151.759781,60.0433018 151.877946,59.9253934 L152.521614,59.2814119 C152.639513,59.1635035 152.639513,58.9701762 152.521614,58.8522678" id="Fill-40" fill="url(#linearGradient-2)" mask="url(#mask-6)"></path>
                    <path d="M154.452857,59.9252607 C154.571022,59.8073523 154.571022,59.614025 154.452857,59.4961166 L153.809189,58.8521351 C153.691024,58.7342267 153.497976,58.7342267 153.379811,58.8521351 C153.261912,58.970309 153.261912,59.1633707 153.379811,59.2815446 L154.023745,59.9252607 C154.141644,60.0434346 154.334957,60.0434346 154.452857,59.9252607" id="Fill-41" fill="url(#linearGradient-2)" mask="url(#mask-6)"></path>
                    <path d="M152.521614,57.9938736 C152.639513,57.8759652 152.639513,57.682638 152.521614,57.5647296 L151.877946,56.920748 C151.759781,56.8028396 151.566734,56.8028396 151.448569,56.920748 C151.330669,57.038922 151.330669,57.2319837 151.448569,57.3501576 L152.092502,57.9938736 C152.210402,58.111782 152.403714,58.111782 152.521614,57.9938736" id="Fill-42" fill="url(#linearGradient-2)" mask="url(#mask-6)"></path>
                    <path d="M152.925168,56.2985954 C152.772481,56.2985954 152.647267,56.435093 152.647267,56.6021298 L152.647267,57.5124675 C152.647267,57.6795044 152.772481,57.8160019 152.925168,57.8160019 C153.077855,57.8160019 153.203069,57.6795044 153.203069,57.5124675 L153.203069,56.6021298 C153.203069,56.435093 153.077855,56.2985954 152.925168,56.2985954" id="Fill-43" fill="url(#linearGradient-2)" mask="url(#mask-6)"></path>
                    <path d="M152.925168,59.0300333 C152.772481,59.0300333 152.647267,59.1665309 152.647267,59.3335677 L152.647267,60.2439054 C152.647267,60.4109423 152.772481,60.5474398 152.925168,60.5474398 C153.077855,60.5474398 153.203069,60.4109423 153.203069,60.2439054 L153.203069,59.3335677 C153.203069,59.1665309 153.077855,59.0300333 152.925168,59.0300333" id="Fill-44" fill="url(#linearGradient-2)" mask="url(#mask-6)"></path>
                    <path d="M155.075095,58.3974785 C155.075095,58.2447684 154.938608,58.1195363 154.771584,58.1195363 L153.861314,58.1195363 C153.69429,58.1195363 153.557802,58.2447684 153.557802,58.3974785 C153.557802,58.5501887 153.69429,58.6754208 153.861314,58.6754208 L154.771584,58.6754208 C154.938608,58.6754208 155.075095,58.5501887 155.075095,58.3974785" id="Fill-45" fill="url(#linearGradient-2)" mask="url(#mask-6)"></path>
                    <path d="M152.343862,58.3974785 C152.343862,58.2447684 152.207374,58.1195363 152.04035,58.1195363 L151.13008,58.1195363 C150.963056,58.1195363 150.826569,58.2447684 150.826569,58.3974785 C150.826569,58.5501887 150.963056,58.6754208 151.13008,58.6754208 L152.04035,58.6754208 C152.207374,58.6754208 152.343862,58.5501887 152.343862,58.3974785" id="Fill-46" fill="url(#linearGradient-2)" mask="url(#mask-6)"></path>
                    <path d="M66.9159658,53.1118825 C66.9159658,53.6985032 66.4403845,54.1741201 65.8538076,54.1741201 C65.2672307,54.1741201 64.7916494,53.6985032 64.7916494,53.1118825 C64.7916494,52.5252617 65.2672307,52.0496448 65.8538076,52.0496448 C66.4403845,52.0496448 66.9159658,52.5252617 66.9159658,53.1118825" id="Fill-47" fill="url(#linearGradient-2)" mask="url(#mask-6)"></path>
                    <path d="M48.2370378,46.2985043 C48.1191382,46.1803304 47.9258254,46.1803304 47.8079259,46.2985043 L47.1639925,46.9422203 C47.0460929,47.0603943 47.0460929,47.2534559 47.1639925,47.3716299 C47.2821576,47.4895383 47.4752048,47.4895383 47.5933699,47.3716299 L48.2370378,46.7276483 C48.3552029,46.6097399 48.3552029,46.4164127 48.2370378,46.2985043" id="Fill-48" fill="url(#linearGradient-2)" mask="url(#mask-6)"></path>
                    <path d="M46.3057952,48.2298914 C46.1878957,48.111983 45.9945829,48.111983 45.8766833,48.2298914 L45.2327499,48.8736074 C45.1148504,48.9917813 45.1148504,49.184843 45.2327499,49.3030169 C45.350915,49.4209253 45.5439623,49.4209253 45.6621274,49.3030169 L46.3057952,48.6590354 C46.4236948,48.541127 46.4236948,48.3477997 46.3057952,48.2298914" id="Fill-49" fill="url(#linearGradient-2)" mask="url(#mask-6)"></path>
                    <path d="M48.2370378,49.3028842 C48.3552029,49.1849758 48.3552029,48.9916485 48.2370378,48.8737401 L47.5933699,48.2297586 C47.4752048,48.1118502 47.2821576,48.1118502 47.1639925,48.2297586 C47.0460929,48.3479325 47.0460929,48.5409942 47.1639925,48.6591681 L47.8079259,49.3028842 C47.9258254,49.4210581 48.1191382,49.4210581 48.2370378,49.3028842" id="Fill-50" fill="url(#linearGradient-2)" mask="url(#mask-6)"></path>
                    <path d="M46.3057952,47.3714971 C46.4236948,47.2535887 46.4236948,47.0602615 46.3057952,46.9423531 L45.6621274,46.2983715 C45.5439623,46.1804631 45.350915,46.1804631 45.2327499,46.2983715 C45.1148504,46.4165455 45.1148504,46.6096072 45.2327499,46.7277811 L45.8766833,47.3714971 C45.9945829,47.4894055 46.1878957,47.4894055 46.3057952,47.3714971" id="Fill-51" fill="url(#linearGradient-2)" mask="url(#mask-6)"></path>
                    <path d="M46.7093492,45.6762189 C46.5566619,45.6762189 46.4314485,45.8127165 46.4314485,45.9797533 L46.4314485,46.890091 C46.4314485,47.0571279 46.5566619,47.1936254 46.7093492,47.1936254 C46.8620365,47.1936254 46.9872498,47.0571279 46.9872498,46.890091 L46.9872498,45.9797533 C46.9872498,45.8127165 46.8620365,45.6762189 46.7093492,45.6762189" id="Fill-52" fill="url(#linearGradient-2)" mask="url(#mask-6)"></path>
                    <path d="M46.7093492,48.4076568 C46.5566619,48.4076568 46.4314485,48.5441544 46.4314485,48.7111912 L46.4314485,49.6215289 C46.4314485,49.7885658 46.5566619,49.9250633 46.7093492,49.9250633 C46.8620365,49.9250633 46.9872498,49.7885658 46.9872498,49.6215289 L46.9872498,48.7111912 C46.9872498,48.5441544 46.8620365,48.4076568 46.7093492,48.4076568" id="Fill-53" fill="url(#linearGradient-2)" mask="url(#mask-6)"></path>
                    <path d="M48.8592766,47.7751021 C48.8592766,47.6223919 48.7227893,47.4971598 48.5557649,47.4971598 L47.6454953,47.4971598 C47.478471,47.4971598 47.3419836,47.6223919 47.3419836,47.7751021 C47.3419836,47.9278122 47.478471,48.0530443 47.6454953,48.0530443 L48.5557649,48.0530443 C48.7227893,48.0530443 48.8592766,47.9278122 48.8592766,47.7751021" id="Fill-54" fill="url(#linearGradient-2)" mask="url(#mask-6)"></path>
                    <path d="M46.128043,47.7751021 C46.128043,47.6223919 45.9915557,47.4971598 45.8245313,47.4971598 L44.9142618,47.4971598 C44.7472374,47.4971598 44.6107501,47.6223919 44.6107501,47.7751021 C44.6107501,47.9278122 44.7472374,48.0530443 44.9142618,48.0530443 L45.8245313,48.0530443 C45.9915557,48.0530443 46.128043,47.9278122 46.128043,47.7751021" id="Fill-55" fill="url(#linearGradient-2)" mask="url(#mask-6)"></path>
                    <path d="M129.450529,56.2416595 C128.821731,56.2416595 128.312427,55.7323165 128.312427,55.1034718 C128.312427,54.4748927 128.821731,53.9655498 129.450529,53.9655498 C130.079327,53.9655498 130.588632,54.4748927 130.588632,55.1034718 C130.588632,55.7323165 130.079327,56.2416595 129.450529,56.2416595 M129.450529,53.1117763 C128.35093,53.1117763 127.458982,54.0037903 127.458982,55.1034718 C127.458982,56.2031534 128.35093,57.0951674 129.450529,57.0951674 C130.550128,57.0951674 131.442076,56.2031534 131.442076,55.1034718 C131.442076,54.0037903 130.550128,53.1117763 129.450529,53.1117763" id="Fill-56" fill="url(#linearGradient-2)" mask="url(#mask-6)"></path>
                </g>
            </g>
        </g>
    </g>
</svg>